<?xml version="1.0" encoding="UTF-8" standalone="no"?>
<!DOCTYPE svg PUBLIC "-//W3C//DTD SVG 1.1//EN"
 "http://www.w3.org/Graphics/SVG/1.1/DTD/svg11.dtd">
<!-- Generated by graphviz version 2.38.0 (20140413.2041)
 -->
<!-- Title: webthree Pages: 1 -->
<svg width="1168pt" height="715pt"
 viewBox="0.00 0.00 1168.14 715.00" xmlns="http://www.w3.org/2000/svg" xmlns:xlink="http://www.w3.org/1999/xlink">
<g id="graph0" class="graph" transform="scale(1 1) rotate(0) translate(4 711)">
<title>webthree</title>
<polygon fill="white" stroke="none" points="-4,4 -4,-711 1164.14,-711 1164.14,4 -4,4"/>
<text text-anchor="middle" x="580.072" y="-7.8" font-family="Times,serif" font-size="14.00">Ethereum C++ dependencies</text>
<!-- buildinfo -->
<g id="node1" class="node"><title>buildinfo</title>
<ellipse fill="deepskyblue" stroke="black" cx="596.413" cy="-185" rx="41.5911" ry="18"/>
<text text-anchor="middle" x="596.413" y="-182.5" font-family="Courier,monospace" font-size="10.00">buildinfo</text>
</g>
<!-- json_spirit -->
<g id="node2" class="node"><title>json_spirit</title>
<ellipse fill="none" stroke="red" cx="487.413" cy="-185" rx="48.7185" ry="18"/>
<text text-anchor="middle" x="487.413" y="-182.5" font-family="Courier,monospace" font-size="10.00">json_spirit</text>
</g>
<!-- scrypt -->
<g id="node3" class="node"><title>scrypt</title>
<ellipse fill="none" stroke="red" cx="301.413" cy="-185" rx="31.3996" ry="18"/>
<text text-anchor="middle" x="301.413" y="-182.5" font-family="Courier,monospace" font-size="10.00">scrypt</text>
</g>
<!-- secp256k1 -->
<g id="node4" class="node"><title>secp256k1</title>
<ellipse fill="none" stroke="red" cx="162.413" cy="-185" rx="41.5911" ry="18"/>
<text text-anchor="middle" x="162.413" y="-182.5" font-family="Courier,monospace" font-size="10.00">secp256k1</text>
</g>
<!-- gmp -->
<g id="node5" class="node"><title>gmp</title>
<ellipse fill="none" stroke="black" cx="114.413" cy="-113" rx="27" ry="18"/>
<text text-anchor="middle" x="114.413" y="-110.5" font-family="Courier,monospace" font-size="10.00">gmp</text>
</g>
<!-- secp256k1&#45;&gt;gmp -->
<g id="edge1" class="edge"><title>secp256k1&#45;&gt;gmp</title>
<path fill="none" stroke="black" d="M151.038,-167.411C145.095,-158.744 137.708,-147.971 131.128,-138.375"/>
<polygon fill="black" stroke="black" points="133.918,-136.256 125.376,-129.988 128.145,-140.215 133.918,-136.256"/>
</g>
<!-- testeth -->
<g id="node6" class="node"><title>testeth</title>
<polygon fill="chartreuse" stroke="black" stroke-width="2" points="460.913,-563 401.913,-563 401.913,-527 460.913,-527 460.913,-563"/>
<text text-anchor="middle" x="431.413" y="-542.5" font-family="Courier,monospace" font-size="10.00">testeth</text>
</g>
<!-- ethashseal -->
<g id="node7" class="node"><title>ethashseal</title>
<ellipse fill="deepskyblue" stroke="black" cx="525.413" cy="-473" rx="45.1548" ry="18"/>
<text text-anchor="middle" x="525.413" y="-470.5" font-family="Courier,monospace" font-size="10.00">ethashseal</text>
</g>
<!-- testeth&#45;&gt;ethashseal -->
<g id="edge2" class="edge"><title>testeth&#45;&gt;ethashseal</title>
<path fill="none" stroke="black" d="M454.649,-526.697C467.436,-517.175 483.407,-505.281 496.938,-495.205"/>
<polygon fill="black" stroke="black" points="499.068,-497.982 504.998,-489.202 494.887,-492.368 499.068,-497.982"/>
</g>
<!-- boost::unit_test_framework -->
<g id="node8" class="node"><title>boost::unit_test_framework</title>
<ellipse fill="none" stroke="black" cx="360.413" cy="-473" rx="101.678" ry="18"/>
<text text-anchor="middle" x="360.413" y="-470.5" font-family="Courier,monospace" font-size="10.00">boost::unit_test_framework</text>
</g>
<!-- testeth&#45;&gt;boost::unit_test_framework -->
<g id="edge3" class="edge"><title>testeth&#45;&gt;boost::unit_test_framework</title>
<path fill="none" stroke="black" d="M413.863,-526.697C405.179,-518.135 394.55,-507.656 385.065,-498.304"/>
<polygon fill="black" stroke="black" points="387.34,-495.633 377.762,-491.104 382.426,-500.617 387.34,-495.633"/>
</g>
<!-- ethereum -->
<g id="node31" class="node"><title>ethereum</title>
<ellipse fill="deepskyblue" stroke="black" cx="419.413" cy="-401" rx="38.0276" ry="18"/>
<text text-anchor="middle" x="419.413" y="-398.5" font-family="Courier,monospace" font-size="10.00">ethereum</text>
</g>
<!-- ethashseal&#45;&gt;ethereum -->
<g id="edge40" class="edge"><title>ethashseal&#45;&gt;ethereum</title>
<path fill="none" stroke="black" d="M502.933,-457.155C487.304,-446.834 466.304,-432.966 449.272,-421.718"/>
<polygon fill="black" stroke="black" points="451.049,-418.698 440.776,-416.108 447.192,-424.539 451.049,-418.698"/>
</g>
<!-- ethash&#45;cl -->
<g id="node39" class="node"><title>ethash&#45;cl</title>
<ellipse fill="none" stroke="black" cx="629.413" cy="-401" rx="41.5911" ry="18"/>
<text text-anchor="middle" x="629.413" y="-398.5" font-family="Courier,monospace" font-size="10.00">ethash&#45;cl</text>
</g>
<!-- ethashseal&#45;&gt;ethash&#45;cl -->
<g id="edge41" class="edge"><title>ethashseal&#45;&gt;ethash&#45;cl</title>
<path fill="none" stroke="black" stroke-dasharray="1,5" d="M547.469,-457.155C562.461,-447.064 582.49,-433.583 598.994,-422.474"/>
<polygon fill="black" stroke="black" points="601.404,-425.071 607.746,-416.584 597.496,-419.264 601.404,-425.071"/>
</g>
<!-- Cpuid -->
<g id="node40" class="node"><title>Cpuid</title>
<ellipse fill="none" stroke="black" cx="525.413" cy="-401" rx="27.8353" ry="18"/>
<text text-anchor="middle" x="525.413" y="-398.5" font-family="Courier,monospace" font-size="10.00">Cpuid</text>
</g>
<!-- ethashseal&#45;&gt;Cpuid -->
<g id="edge42" class="edge"><title>ethashseal&#45;&gt;Cpuid</title>
<path fill="none" stroke="black" stroke-dasharray="1,5" d="M525.413,-454.697C525.413,-446.983 525.413,-437.712 525.413,-429.112"/>
<polygon fill="black" stroke="black" points="528.913,-429.104 525.413,-419.104 521.913,-429.104 528.913,-429.104"/>
</g>
<!-- testweb3 -->
<g id="node9" class="node"><title>testweb3</title>
<polygon fill="chartreuse" stroke="black" stroke-width="2" points="392.913,-707 327.913,-707 327.913,-671 392.913,-671 392.913,-707"/>
<text text-anchor="middle" x="360.413" y="-686.5" font-family="Courier,monospace" font-size="10.00">testweb3</text>
</g>
<!-- testweb3&#45;&gt;boost::unit_test_framework -->
<g id="edge5" class="edge"><title>testweb3&#45;&gt;boost::unit_test_framework</title>
<path fill="none" stroke="black" d="M360.413,-670.849C360.413,-633.832 360.413,-546.181 360.413,-501.386"/>
<polygon fill="black" stroke="black" points="363.913,-501.232 360.413,-491.232 356.913,-501.232 363.913,-501.232"/>
</g>
<!-- web3jsonrpc -->
<g id="node10" class="node"><title>web3jsonrpc</title>
<ellipse fill="deepskyblue" stroke="black" cx="282.413" cy="-617" rx="48.7185" ry="18"/>
<text text-anchor="middle" x="282.413" y="-614.5" font-family="Courier,monospace" font-size="10.00">web3jsonrpc</text>
</g>
<!-- testweb3&#45;&gt;web3jsonrpc -->
<g id="edge4" class="edge"><title>testweb3&#45;&gt;web3jsonrpc</title>
<path fill="none" stroke="black" d="M341.132,-670.697C331.04,-661.64 318.558,-650.437 307.7,-640.693"/>
<polygon fill="black" stroke="black" points="309.919,-637.982 300.138,-633.907 305.243,-643.191 309.919,-637.982"/>
</g>
<!-- webthree -->
<g id="node29" class="node"><title>webthree</title>
<ellipse fill="deepskyblue" stroke="black" cx="282.413" cy="-545" rx="38.0276" ry="18"/>
<text text-anchor="middle" x="282.413" y="-542.5" font-family="Courier,monospace" font-size="10.00">webthree</text>
</g>
<!-- web3jsonrpc&#45;&gt;webthree -->
<g id="edge25" class="edge"><title>web3jsonrpc&#45;&gt;webthree</title>
<path fill="none" stroke="black" d="M282.413,-598.697C282.413,-590.983 282.413,-581.712 282.413,-573.112"/>
<polygon fill="black" stroke="black" points="285.913,-573.104 282.413,-563.104 278.913,-573.104 285.913,-573.104"/>
</g>
<!-- testweb3core -->
<g id="node11" class="node"><title>testweb3core</title>
<polygon fill="chartreuse" stroke="black" stroke-width="2" points="176.913,-563 87.9131,-563 87.9131,-527 176.913,-527 176.913,-563"/>
<text text-anchor="middle" x="132.413" y="-542.5" font-family="Courier,monospace" font-size="10.00">testweb3core</text>
</g>
<!-- testweb3core&#45;&gt;boost::unit_test_framework -->
<g id="edge8" class="edge"><title>testweb3core&#45;&gt;boost::unit_test_framework</title>
<path fill="none" stroke="black" d="M176.915,-530.337C212.636,-519.37 263.079,-503.883 302.04,-491.922"/>
<polygon fill="black" stroke="black" points="303.149,-495.242 311.682,-488.961 301.095,-488.551 303.149,-495.242"/>
</g>
<!-- boost::regex -->
<g id="node12" class="node"><title>boost::regex</title>
<ellipse fill="none" stroke="black" cx="106.413" cy="-329" rx="52.2822" ry="18"/>
<text text-anchor="middle" x="106.413" y="-326.5" font-family="Courier,monospace" font-size="10.00">boost::regex</text>
</g>
<!-- testweb3core&#45;&gt;boost::regex -->
<g id="edge6" class="edge"><title>testweb3core&#45;&gt;boost::regex</title>
<path fill="none" stroke="black" d="M87.8234,-537.321C60.1758,-530.626 26.7315,-517.32 9.41309,-491 -22.6555,-442.263 37.3767,-383.076 76.509,-351.805"/>
<polygon fill="black" stroke="black" points="78.77,-354.48 84.5016,-345.569 74.4642,-348.961 78.77,-354.48"/>
</g>
<!-- p2p -->
<g id="node13" class="node"><title>p2p</title>
<ellipse fill="deepskyblue" stroke="black" cx="203.413" cy="-329" rx="27" ry="18"/>
<text text-anchor="middle" x="203.413" y="-326.5" font-family="Courier,monospace" font-size="10.00">p2p</text>
</g>
<!-- testweb3core&#45;&gt;p2p -->
<g id="edge7" class="edge"><title>testweb3core&#45;&gt;p2p</title>
<path fill="none" stroke="black" d="M143.198,-526.859C149.209,-516.728 156.459,-503.478 161.413,-491 179.417,-445.651 191.947,-390.057 198.389,-357.478"/>
<polygon fill="black" stroke="black" points="201.883,-357.842 200.339,-347.36 195.009,-356.517 201.883,-357.842"/>
</g>
<!-- boost::date_time -->
<g id="node14" class="node"><title>boost::date_time</title>
<ellipse fill="none" stroke="black" cx="85.4131" cy="-473" rx="66.5378" ry="18"/>
<text text-anchor="middle" x="85.4131" y="-470.5" font-family="Courier,monospace" font-size="10.00">boost::date_time</text>
</g>
<!-- testweb3core&#45;&gt;boost::date_time -->
<g id="edge9" class="edge"><title>testweb3core&#45;&gt;boost::date_time</title>
<path fill="none" stroke="black" d="M120.795,-526.697C115.274,-518.474 108.566,-508.483 102.481,-499.421"/>
<polygon fill="black" stroke="black" points="105.378,-497.456 96.8974,-491.104 99.566,-501.358 105.378,-497.456"/>
</g>
<!-- devcrypto -->
<g id="node16" class="node"><title>devcrypto</title>
<ellipse fill="deepskyblue" stroke="black" cx="303.413" cy="-257" rx="41.5911" ry="18"/>
<text text-anchor="middle" x="303.413" y="-254.5" font-family="Courier,monospace" font-size="10.00">devcrypto</text>
</g>
<!-- p2p&#45;&gt;devcrypto -->
<g id="edge36" class="edge"><title>p2p&#45;&gt;devcrypto</title>
<path fill="none" stroke="black" d="M221.291,-315.485C235.834,-305.305 256.665,-290.723 273.708,-278.794"/>
<polygon fill="black" stroke="black" points="276.036,-281.436 282.221,-272.834 272.021,-275.702 276.036,-281.436"/>
</g>
<!-- Miniupnpc -->
<g id="node36" class="node"><title>Miniupnpc</title>
<ellipse fill="none" stroke="black" cx="201.413" cy="-257" rx="41.5911" ry="18"/>
<text text-anchor="middle" x="201.413" y="-254.5" font-family="Courier,monospace" font-size="10.00">Miniupnpc</text>
</g>
<!-- p2p&#45;&gt;Miniupnpc -->
<g id="edge37" class="edge"><title>p2p&#45;&gt;Miniupnpc</title>
<path fill="none" stroke="black" stroke-dasharray="1,5" d="M202.919,-310.697C202.698,-302.983 202.433,-293.712 202.188,-285.112"/>
<polygon fill="black" stroke="black" points="205.686,-285 201.902,-275.104 198.689,-285.2 205.686,-285"/>
</g>
<!-- bench -->
<g id="node15" class="node"><title>bench</title>
<polygon fill="chartreuse" stroke="black" stroke-width="2" points="374.413,-347 320.413,-347 320.413,-311 374.413,-311 374.413,-347"/>
<text text-anchor="middle" x="347.413" y="-326.5" font-family="Courier,monospace" font-size="10.00">bench</text>
</g>
<!-- bench&#45;&gt;devcrypto -->
<g id="edge10" class="edge"><title>bench&#45;&gt;devcrypto</title>
<path fill="none" stroke="black" d="M336.537,-310.697C331.345,-302.437 325.032,-292.394 319.316,-283.299"/>
<polygon fill="black" stroke="black" points="322.146,-281.226 313.861,-274.622 316.22,-284.951 322.146,-281.226"/>
</g>
<!-- devcrypto&#45;&gt;json_spirit -->
<g id="edge11" class="edge"><title>devcrypto&#45;&gt;json_spirit</title>
<path fill="none" stroke="black" d="M333.797,-244.441C364.083,-232.919 410.857,-215.125 444.837,-202.197"/>
<polygon fill="black" stroke="black" points="446.396,-205.349 454.498,-198.522 443.907,-198.807 446.396,-205.349"/>
</g>
<!-- devcrypto&#45;&gt;scrypt -->
<g id="edge12" class="edge"><title>devcrypto&#45;&gt;scrypt</title>
<path fill="none" stroke="black" d="M302.919,-238.697C302.698,-230.983 302.433,-221.712 302.188,-213.112"/>
<polygon fill="black" stroke="black" points="305.686,-213 301.902,-203.104 298.689,-213.2 305.686,-213"/>
</g>
<!-- devcrypto&#45;&gt;secp256k1 -->
<g id="edge13" class="edge"><title>devcrypto&#45;&gt;secp256k1</title>
<path fill="none" stroke="black" d="M276.892,-242.834C254.539,-231.736 222.365,-215.764 197.815,-203.575"/>
<polygon fill="black" stroke="black" points="199.329,-200.419 188.815,-199.107 196.216,-206.689 199.329,-200.419"/>
</g>
<!-- devcore -->
<g id="node17" class="node"><title>devcore</title>
<ellipse fill="deepskyblue" stroke="black" cx="385.413" cy="-185" rx="34.9638" ry="18"/>
<text text-anchor="middle" x="385.413" y="-182.5" font-family="Courier,monospace" font-size="10.00">devcore</text>
</g>
<!-- devcrypto&#45;&gt;devcore -->
<g id="edge14" class="edge"><title>devcrypto&#45;&gt;devcore</title>
<path fill="none" stroke="black" d="M321.612,-240.465C332.991,-230.751 347.806,-218.104 360.296,-207.442"/>
<polygon fill="black" stroke="black" points="362.774,-209.928 368.108,-200.773 358.229,-204.604 362.774,-209.928"/>
</g>
<!-- boost::filesystem -->
<g id="node22" class="node"><title>boost::filesystem</title>
<ellipse fill="none" stroke="black" cx="447.413" cy="-113" rx="70.1018" ry="18"/>
<text text-anchor="middle" x="447.413" y="-110.5" font-family="Courier,monospace" font-size="10.00">boost::filesystem</text>
</g>
<!-- devcore&#45;&gt;boost::filesystem -->
<g id="edge18" class="edge"><title>devcore&#45;&gt;boost::filesystem</title>
<path fill="none" stroke="black" d="M399.173,-168.465C406.942,-159.693 416.83,-148.529 425.628,-138.596"/>
<polygon fill="black" stroke="black" points="428.379,-140.768 432.39,-130.962 423.139,-136.127 428.379,-140.768"/>
</g>
<!-- boost::random -->
<g id="node23" class="node"><title>boost::random</title>
<ellipse fill="none" stroke="black" cx="591.413" cy="-113" rx="55.8461" ry="18"/>
<text text-anchor="middle" x="591.413" y="-110.5" font-family="Courier,monospace" font-size="10.00">boost::random</text>
</g>
<!-- devcore&#45;&gt;boost::random -->
<g id="edge19" class="edge"><title>devcore&#45;&gt;boost::random</title>
<path fill="none" stroke="black" d="M412.322,-173.346C417.949,-171.191 423.859,-168.98 429.413,-167 467.304,-153.492 510.633,-139.386 542.941,-129.125"/>
<polygon fill="black" stroke="black" points="544.118,-132.424 552.595,-126.069 542.005,-125.75 544.118,-132.424"/>
</g>
<!-- boost::system -->
<g id="node24" class="node"><title>boost::system</title>
<ellipse fill="none" stroke="black" cx="721.413" cy="-113" rx="55.8461" ry="18"/>
<text text-anchor="middle" x="721.413" y="-110.5" font-family="Courier,monospace" font-size="10.00">boost::system</text>
</g>
<!-- devcore&#45;&gt;boost::system -->
<g id="edge20" class="edge"><title>devcore&#45;&gt;boost::system</title>
<path fill="none" stroke="black" d="M411.636,-172.829C417.416,-170.661 423.561,-168.575 429.413,-167 528.051,-140.444 556.435,-151.949 656.413,-131 661.022,-130.034 665.795,-128.95 670.564,-127.809"/>
<polygon fill="black" stroke="black" points="671.426,-131.202 680.295,-125.407 669.748,-124.406 671.426,-131.202"/>
</g>
<!-- boost::thread -->
<g id="node25" class="node"><title>boost::thread</title>
<ellipse fill="none" stroke="black" cx="215.413" cy="-113" rx="55.8461" ry="18"/>
<text text-anchor="middle" x="215.413" y="-110.5" font-family="Courier,monospace" font-size="10.00">boost::thread</text>
</g>
<!-- devcore&#45;&gt;boost::thread -->
<g id="edge21" class="edge"><title>devcore&#45;&gt;boost::thread</title>
<path fill="none" stroke="black" d="M358.851,-173.062C331.854,-161.946 289.614,-144.553 257.951,-131.516"/>
<polygon fill="black" stroke="black" points="259.073,-128.192 248.493,-127.621 256.407,-134.665 259.073,-128.192"/>
</g>
<!-- LevelDB -->
<g id="node26" class="node"><title>LevelDB</title>
<ellipse fill="none" stroke="black" cx="324.413" cy="-113" rx="34.9638" ry="18"/>
<text text-anchor="middle" x="324.413" y="-110.5" font-family="Courier,monospace" font-size="10.00">LevelDB</text>
</g>
<!-- devcore&#45;&gt;LevelDB -->
<g id="edge22" class="edge"><title>devcore&#45;&gt;LevelDB</title>
<path fill="none" stroke="black" d="M371.571,-168.116C363.694,-159.076 353.678,-147.583 344.905,-137.515"/>
<polygon fill="black" stroke="black" points="347.409,-135.061 338.2,-129.821 342.131,-139.66 347.409,-135.061"/>
</g>
<!-- curl -->
<g id="node18" class="node"><title>curl</title>
<ellipse fill="none" stroke="black" cx="748.413" cy="-617" rx="27" ry="18"/>
<text text-anchor="middle" x="748.413" y="-614.5" font-family="Courier,monospace" font-size="10.00">curl</text>
</g>
<!-- ssh2 -->
<g id="node19" class="node"><title>ssh2</title>
<ellipse fill="none" stroke="black" cx="668.413" cy="-545" rx="27" ry="18"/>
<text text-anchor="middle" x="668.413" y="-542.5" font-family="Courier,monospace" font-size="10.00">ssh2</text>
</g>
<!-- curl&#45;&gt;ssh2 -->
<g id="edge15" class="edge"><title>curl&#45;&gt;ssh2</title>
<path fill="none" stroke="black" stroke-dasharray="1,5" d="M732.608,-602.17C720.993,-592.008 705.019,-578.03 691.912,-566.561"/>
<polygon fill="black" stroke="black" points="694.016,-563.752 684.186,-559.801 689.407,-569.02 694.016,-563.752"/>
</g>
<!-- openssl -->
<g id="node20" class="node"><title>openssl</title>
<ellipse fill="none" stroke="black" cx="748.413" cy="-545" rx="34.9638" ry="18"/>
<text text-anchor="middle" x="748.413" y="-542.5" font-family="Courier,monospace" font-size="10.00">openssl</text>
</g>
<!-- curl&#45;&gt;openssl -->
<g id="edge16" class="edge"><title>curl&#45;&gt;openssl</title>
<path fill="none" stroke="black" stroke-dasharray="1,5" d="M748.413,-598.697C748.413,-590.983 748.413,-581.712 748.413,-573.112"/>
<polygon fill="black" stroke="black" points="751.913,-573.104 748.413,-563.104 744.913,-573.104 751.913,-573.104"/>
</g>
<!-- zlib -->
<g id="node21" class="node"><title>zlib</title>
<ellipse fill="none" stroke="black" cx="828.413" cy="-545" rx="27" ry="18"/>
<text text-anchor="middle" x="828.413" y="-542.5" font-family="Courier,monospace" font-size="10.00">zlib</text>
</g>
<!-- curl&#45;&gt;zlib -->
<g id="edge17" class="edge"><title>curl&#45;&gt;zlib</title>
<path fill="none" stroke="black" stroke-dasharray="1,5" d="M764.219,-602.17C775.833,-592.008 791.807,-578.03 804.914,-566.561"/>
<polygon fill="black" stroke="black" points="807.419,-569.02 812.64,-559.801 802.81,-563.752 807.419,-569.02"/>
</g>
<!-- snappy -->
<g id="node27" class="node"><title>snappy</title>
<ellipse fill="none" stroke="black" cx="324.413" cy="-41" rx="31.3996" ry="18"/>
<text text-anchor="middle" x="324.413" y="-38.5" font-family="Courier,monospace" font-size="10.00">snappy</text>
</g>
<!-- LevelDB&#45;&gt;snappy -->
<g id="edge23" class="edge"><title>LevelDB&#45;&gt;snappy</title>
<path fill="none" stroke="black" stroke-dasharray="1,5" d="M324.413,-94.6966C324.413,-86.9827 324.413,-77.7125 324.413,-69.1124"/>
<polygon fill="black" stroke="black" points="327.913,-69.1043 324.413,-59.1043 320.913,-69.1044 327.913,-69.1043"/>
</g>
<!-- eth -->
<g id="node28" class="node"><title>eth</title>
<polygon fill="chartreuse" stroke="black" stroke-width="2" points="309.413,-707 255.413,-707 255.413,-671 309.413,-671 309.413,-707"/>
<text text-anchor="middle" x="282.413" y="-686.5" font-family="Courier,monospace" font-size="10.00">eth</text>
</g>
<!-- eth&#45;&gt;web3jsonrpc -->
<g id="edge24" class="edge"><title>eth&#45;&gt;web3jsonrpc</title>
<path fill="none" stroke="black" d="M282.413,-670.697C282.413,-662.983 282.413,-653.712 282.413,-645.112"/>
<polygon fill="black" stroke="black" points="285.913,-645.104 282.413,-635.104 278.913,-645.104 285.913,-645.104"/>
</g>
<!-- webthree&#45;&gt;ethashseal -->
<g id="edge52" class="edge"><title>webthree&#45;&gt;ethashseal</title>
<path fill="none" stroke="black" d="M314.943,-535.214C352.674,-524.945 416.702,-507.279 471.413,-491 474.716,-490.017 478.127,-488.985 481.555,-487.935"/>
<polygon fill="black" stroke="black" points="482.665,-491.255 491.183,-484.955 480.596,-484.568 482.665,-491.255"/>
</g>
<!-- whisper -->
<g id="node50" class="node"><title>whisper</title>
<ellipse fill="deepskyblue" stroke="black" cx="243.413" cy="-401" rx="34.9638" ry="18"/>
<text text-anchor="middle" x="243.413" y="-398.5" font-family="Courier,monospace" font-size="10.00">whisper</text>
</g>
<!-- webthree&#45;&gt;whisper -->
<g id="edge53" class="edge"><title>webthree&#45;&gt;whisper</title>
<path fill="none" stroke="black" d="M269.444,-527.867C262.182,-517.868 253.74,-504.41 249.413,-491 242.964,-471.012 241.664,-447.223 241.867,-429.271"/>
<polygon fill="black" stroke="black" points="245.368,-429.284 242.144,-419.192 238.371,-429.092 245.368,-429.284"/>
</g>
<!-- ethcore -->
<g id="node30" class="node"><title>ethcore</title>
<ellipse fill="deepskyblue" stroke="black" cx="487.413" cy="-257" rx="34.9638" ry="18"/>
<text text-anchor="middle" x="487.413" y="-254.5" font-family="Courier,monospace" font-size="10.00">ethcore</text>
</g>
<!-- ethcore&#45;&gt;buildinfo -->
<g id="edge26" class="edge"><title>ethcore&#45;&gt;buildinfo</title>
<path fill="none" stroke="black" d="M508.429,-242.503C524.591,-232.124 547.167,-217.626 565.404,-205.914"/>
<polygon fill="black" stroke="black" points="567.437,-208.768 573.96,-200.419 563.655,-202.878 567.437,-208.768"/>
</g>
<!-- ethcore&#45;&gt;json_spirit -->
<g id="edge27" class="edge"><title>ethcore&#45;&gt;json_spirit</title>
<path fill="none" stroke="black" d="M487.413,-238.697C487.413,-230.983 487.413,-221.712 487.413,-213.112"/>
<polygon fill="black" stroke="black" points="490.913,-213.104 487.413,-203.104 483.913,-213.104 490.913,-213.104"/>
</g>
<!-- ethcore&#45;&gt;devcore -->
<g id="edge28" class="edge"><title>ethcore&#45;&gt;devcore</title>
<path fill="none" stroke="black" d="M467.261,-242.17C452.034,-231.72 430.929,-217.236 413.964,-205.594"/>
<polygon fill="black" stroke="black" points="415.749,-202.574 405.523,-199.801 411.788,-208.345 415.749,-202.574"/>
</g>
<!-- ethereum&#45;&gt;boost::regex -->
<g id="edge29" class="edge"><title>ethereum&#45;&gt;boost::regex</title>
<path fill="none" stroke="black" d="M384.605,-393.417C335.839,-384.026 244.502,-365.828 167.413,-347 163.328,-346.002 159.102,-344.923 154.868,-343.809"/>
<polygon fill="black" stroke="black" points="155.603,-340.383 145.038,-341.169 153.788,-347.143 155.603,-340.383"/>
</g>
<!-- ethereum&#45;&gt;p2p -->
<g id="edge32" class="edge"><title>ethereum&#45;&gt;p2p</title>
<path fill="none" stroke="black" d="M386.06,-391.835C349.537,-382.514 289.495,-366.067 239.413,-347 237.572,-346.299 235.695,-345.544 233.812,-344.754"/>
<polygon fill="black" stroke="black" points="235.058,-341.478 224.497,-340.623 232.219,-347.877 235.058,-341.478"/>
</g>
<!-- evm -->
<g id="node32" class="node"><title>evm</title>
<ellipse fill="deepskyblue" stroke="black" cx="419.413" cy="-329" rx="27" ry="18"/>
<text text-anchor="middle" x="419.413" y="-326.5" font-family="Courier,monospace" font-size="10.00">evm</text>
</g>
<!-- ethereum&#45;&gt;evm -->
<g id="edge30" class="edge"><title>ethereum&#45;&gt;evm</title>
<path fill="none" stroke="black" d="M419.413,-382.697C419.413,-374.983 419.413,-365.712 419.413,-357.112"/>
<polygon fill="black" stroke="black" points="422.913,-357.104 419.413,-347.104 415.913,-357.104 422.913,-357.104"/>
</g>
<!-- evmjit -->
<g id="node33" class="node"><title>evmjit</title>
<ellipse fill="coral" stroke="black" cx="567.413" cy="-329" rx="31.3996" ry="18"/>
<text text-anchor="middle" x="567.413" y="-326.5" font-family="Courier,monospace" font-size="10.00">evmjit</text>
</g>
<!-- ethereum&#45;&gt;evmjit -->
<g id="edge31" class="edge"><title>ethereum&#45;&gt;evmjit</title>
<path fill="none" stroke="black" stroke-dasharray="1,5" d="M445.532,-387.647C470.365,-375.901 507.805,-358.193 534.632,-345.504"/>
<polygon fill="black" stroke="black" points="536.449,-348.517 543.993,-341.077 533.456,-342.189 536.449,-348.517"/>
</g>
<!-- evm&#45;&gt;ethcore -->
<g id="edge33" class="edge"><title>evm&#45;&gt;ethcore</title>
<path fill="none" stroke="black" d="M433.503,-313.496C442.643,-304.086 454.748,-291.625 465.172,-280.895"/>
<polygon fill="black" stroke="black" points="467.941,-283.068 472.398,-273.457 462.92,-278.191 467.941,-283.068"/>
</g>
<!-- evmcore -->
<g id="node34" class="node"><title>evmcore</title>
<ellipse fill="deepskyblue" stroke="black" cx="400.413" cy="-257" rx="34.9638" ry="18"/>
<text text-anchor="middle" x="400.413" y="-254.5" font-family="Courier,monospace" font-size="10.00">evmcore</text>
</g>
<!-- evm&#45;&gt;evmcore -->
<g id="edge34" class="edge"><title>evm&#45;&gt;evmcore</title>
<path fill="none" stroke="black" d="M414.814,-311.055C412.698,-303.261 410.136,-293.822 407.763,-285.079"/>
<polygon fill="black" stroke="black" points="411.099,-284.009 405.102,-275.275 404.344,-285.843 411.099,-284.009"/>
</g>
<!-- llvm -->
<g id="node35" class="node"><title>llvm</title>
<ellipse fill="none" stroke="black" cx="567.413" cy="-257" rx="27" ry="18"/>
<text text-anchor="middle" x="567.413" y="-254.5" font-family="Courier,monospace" font-size="10.00">llvm</text>
</g>
<!-- evmjit&#45;&gt;llvm -->
<g id="edge35" class="edge"><title>evmjit&#45;&gt;llvm</title>
<path fill="none" stroke="black" d="M567.413,-310.697C567.413,-302.983 567.413,-293.712 567.413,-285.112"/>
<polygon fill="black" stroke="black" points="570.913,-285.104 567.413,-275.104 563.913,-285.104 570.913,-285.104"/>
</g>
<!-- ethash -->
<g id="node37" class="node"><title>ethash</title>
<ellipse fill="deepskyblue" stroke="black" cx="648.413" cy="-329" rx="31.3996" ry="18"/>
<text text-anchor="middle" x="648.413" y="-326.5" font-family="Courier,monospace" font-size="10.00">ethash</text>
</g>
<!-- Cryptopp -->
<g id="node38" class="node"><title>Cryptopp</title>
<ellipse fill="none" stroke="black" cx="650.413" cy="-257" rx="38.0276" ry="18"/>
<text text-anchor="middle" x="650.413" y="-254.5" font-family="Courier,monospace" font-size="10.00">Cryptopp</text>
</g>
<!-- ethash&#45;&gt;Cryptopp -->
<g id="edge38" class="edge"><title>ethash&#45;&gt;Cryptopp</title>
<path fill="none" stroke="black" d="M648.907,-310.697C649.128,-302.983 649.393,-293.712 649.638,-285.112"/>
<polygon fill="black" stroke="black" points="653.137,-285.2 649.924,-275.104 646.14,-285 653.137,-285.2"/>
</g>
<!-- ethash&#45;cl&#45;&gt;ethash -->
<g id="edge39" class="edge"><title>ethash&#45;cl&#45;&gt;ethash</title>
<path fill="none" stroke="black" d="M634.012,-383.055C636.128,-375.261 638.69,-365.822 641.063,-357.079"/>
<polygon fill="black" stroke="black" points="644.482,-357.843 643.724,-347.275 637.727,-356.009 644.482,-357.843"/>
</g>
<!-- ethkey -->
<g id="node41" class="node"><title>ethkey</title>
<polygon fill="chartreuse" stroke="black" stroke-width="2" points="518.413,-347 464.413,-347 464.413,-311 518.413,-311 518.413,-347"/>
<text text-anchor="middle" x="491.413" y="-326.5" font-family="Courier,monospace" font-size="10.00">ethkey</text>
</g>
<!-- ethkey&#45;&gt;ethcore -->
<g id="edge43" class="edge"><title>ethkey&#45;&gt;ethcore</title>
<path fill="none" stroke="black" d="M490.424,-310.697C489.984,-302.983 489.454,-293.712 488.962,-285.112"/>
<polygon fill="black" stroke="black" points="492.455,-284.888 488.39,-275.104 485.467,-285.288 492.455,-284.888"/>
</g>
<!-- ethminer -->
<g id="node42" class="node"><title>ethminer</title>
<polygon fill="chartreuse" stroke="black" stroke-width="2" points="550.913,-563 485.913,-563 485.913,-527 550.913,-527 550.913,-563"/>
<text text-anchor="middle" x="518.413" y="-542.5" font-family="Courier,monospace" font-size="10.00">ethminer</text>
</g>
<!-- ethminer&#45;&gt;ethashseal -->
<g id="edge44" class="edge"><title>ethminer&#45;&gt;ethashseal</title>
<path fill="none" stroke="black" d="M520.143,-526.697C520.915,-518.983 521.842,-509.712 522.702,-501.112"/>
<polygon fill="black" stroke="black" points="526.19,-501.403 523.703,-491.104 519.225,-500.706 526.19,-501.403"/>
</g>
<!-- ethvm -->
<g id="node43" class="node"><title>ethvm</title>
<polygon fill="chartreuse" stroke="black" stroke-width="2" points="623.413,-563 569.413,-563 569.413,-527 623.413,-527 623.413,-563"/>
<text text-anchor="middle" x="596.413" y="-542.5" font-family="Courier,monospace" font-size="10.00">ethvm</text>
</g>
<!-- ethvm&#45;&gt;ethashseal -->
<g id="edge45" class="edge"><title>ethvm&#45;&gt;ethashseal</title>
<path fill="none" stroke="black" d="M578.863,-526.697C569.831,-517.792 558.696,-506.814 548.931,-497.187"/>
<polygon fill="black" stroke="black" points="551.367,-494.673 541.788,-490.145 546.452,-499.658 551.367,-494.673"/>
</g>
<!-- json&#45;rpc&#45;cpp -->
<g id="node44" class="node"><title>json&#45;rpc&#45;cpp</title>
<ellipse fill="none" stroke="black" cx="940.413" cy="-689" rx="52.2822" ry="18"/>
<text text-anchor="middle" x="940.413" y="-686.5" font-family="Courier,monospace" font-size="10.00">json&#45;rpc&#45;cpp</text>
</g>
<!-- json&#45;rpc&#45;cpp&#45;&gt;curl -->
<g id="edge46" class="edge"><title>json&#45;rpc&#45;cpp&#45;&gt;curl</title>
<path fill="none" stroke="black" d="M902.463,-676.439C870.599,-666.416 824.056,-651.034 784.413,-635 782.587,-634.261 780.721,-633.477 778.847,-632.665"/>
<polygon fill="black" stroke="black" points="780.111,-629.395 769.556,-628.474 777.232,-635.776 780.111,-629.395"/>
</g>
<!-- argtable2 -->
<g id="node45" class="node"><title>argtable2</title>
<ellipse fill="none" stroke="black" cx="835.413" cy="-617" rx="41.5911" ry="18"/>
<text text-anchor="middle" x="835.413" y="-614.5" font-family="Courier,monospace" font-size="10.00">argtable2</text>
</g>
<!-- json&#45;rpc&#45;cpp&#45;&gt;argtable2 -->
<g id="edge47" class="edge"><title>json&#45;rpc&#45;cpp&#45;&gt;argtable2</title>
<path fill="none" stroke="black" stroke-dasharray="1,5" d="M917.37,-672.638C902.293,-662.587 882.424,-649.341 866.026,-638.408"/>
<polygon fill="black" stroke="black" points="867.587,-635.243 857.325,-632.608 863.704,-641.067 867.587,-635.243"/>
</g>
<!-- microhttpd -->
<g id="node46" class="node"><title>microhttpd</title>
<ellipse fill="none" stroke="black" cx="940.413" cy="-617" rx="45.1548" ry="18"/>
<text text-anchor="middle" x="940.413" y="-614.5" font-family="Courier,monospace" font-size="10.00">microhttpd</text>
</g>
<!-- json&#45;rpc&#45;cpp&#45;&gt;microhttpd -->
<g id="edge48" class="edge"><title>json&#45;rpc&#45;cpp&#45;&gt;microhttpd</title>
<path fill="none" stroke="black" d="M940.413,-670.697C940.413,-662.983 940.413,-653.712 940.413,-645.112"/>
<polygon fill="black" stroke="black" points="943.913,-645.104 940.413,-635.104 936.913,-645.104 943.913,-645.104"/>
</g>
<!-- Jsoncpp -->
<g id="node47" class="node"><title>Jsoncpp</title>
<ellipse fill="none" stroke="black" cx="1038.41" cy="-617" rx="34.9638" ry="18"/>
<text text-anchor="middle" x="1038.41" y="-614.5" font-family="Courier,monospace" font-size="10.00">Jsoncpp</text>
</g>
<!-- json&#45;rpc&#45;cpp&#45;&gt;Jsoncpp -->
<g id="edge49" class="edge"><title>json&#45;rpc&#45;cpp&#45;&gt;Jsoncpp</title>
<path fill="none" stroke="black" d="M962.162,-672.465C976.304,-662.364 994.886,-649.091 1010.17,-638.177"/>
<polygon fill="black" stroke="black" points="1012.62,-640.726 1018.72,-632.066 1008.55,-635.03 1012.62,-640.726"/>
</g>
<!-- libedit -->
<g id="node48" class="node"><title>libedit</title>
<ellipse fill="none" stroke="black" cx="1125.41" cy="-617" rx="34.9638" ry="18"/>
<text text-anchor="middle" x="1125.41" y="-614.5" font-family="Courier,monospace" font-size="10.00">libedit</text>
</g>
<!-- json&#45;rpc&#45;cpp&#45;&gt;libedit -->
<g id="edge50" class="edge"><title>json&#45;rpc&#45;cpp&#45;&gt;libedit</title>
<path fill="none" stroke="black" d="M974.916,-675.333C1003.71,-664.71 1045.81,-649.063 1082.41,-635 1084.63,-634.15 1086.9,-633.269 1089.19,-632.377"/>
<polygon fill="black" stroke="black" points="1090.57,-635.596 1098.61,-628.69 1088.02,-629.078 1090.57,-635.596"/>
</g>
<!-- rlp -->
<g id="node49" class="node"><title>rlp</title>
<polygon fill="chartreuse" stroke="black" stroke-width="2" points="302.413,-347 248.413,-347 248.413,-311 302.413,-311 302.413,-347"/>
<text text-anchor="middle" x="275.413" y="-326.5" font-family="Courier,monospace" font-size="10.00">rlp</text>
</g>
<!-- rlp&#45;&gt;devcrypto -->
<g id="edge51" class="edge"><title>rlp&#45;&gt;devcrypto</title>
<path fill="none" stroke="black" d="M282.334,-310.697C285.488,-302.813 289.291,-293.304 292.795,-284.546"/>
<polygon fill="black" stroke="black" points="296.107,-285.689 296.571,-275.104 289.608,-283.089 296.107,-285.689"/>
</g>
<!-- whisper&#45;&gt;boost::regex -->
<g id="edge54" class="edge"><title>whisper&#45;&gt;boost::regex</title>
<path fill="none" stroke="black" d="M219.55,-387.807C198.612,-377.109 167.82,-361.376 143.645,-349.023"/>
<polygon fill="black" stroke="black" points="145.235,-345.905 134.737,-344.472 142.05,-352.139 145.235,-345.905"/>
</g>
<!-- whisper&#45;&gt;p2p -->
<g id="edge55" class="edge"><title>whisper&#45;&gt;p2p</title>
<path fill="none" stroke="black" d="M233.934,-383.411C229.082,-374.921 223.076,-364.41 217.678,-354.964"/>
<polygon fill="black" stroke="black" points="220.549,-352.934 212.549,-345.988 214.472,-356.407 220.549,-352.934"/>
</g>
<!-- test -->
<g id="node51" class="node"><title>test</title>
<polygon fill="chartreuse" stroke="black" stroke-width="2" points="1064.41,-707 1010.41,-707 1010.41,-671 1064.41,-671 1064.41,-707"/>
<text text-anchor="middle" x="1037.41" y="-686.5" font-family="Courier,monospace" font-size="10.00">test</text>
</g>
</g>
</svg>
